<svg width="19" height="17" viewBox="0 0 19 17" fill="none" xmlns="http://www.w3.org/2000/svg">
<path d="M7.13937 12.1651C6.39027 11.0274 6.70525 9.49788 7.8429 8.74878L9.19726 7.85698C9.58693 7.6004 9.69481 7.07652 9.43823 6.68686C9.18166 6.2972 8.65778 6.18932 8.26812 6.4459L6.91376 7.33769C5.7761 8.08679 4.24658 7.77181 3.49748 6.63416L0.601144 2.23552C0.560789 2.17422 0.536679 2.10373 0.53119 2.03102C0.5257 1.95831 0.539021 1.88588 0.569839 1.82087C0.600657 1.75586 0.647909 1.70051 0.706936 1.66029C0.765964 1.62006 0.83473 1.59634 0.906457 1.59147L18.3004 0.408449C18.3743 0.403459 18.4486 0.418641 18.5157 0.452412C18.5827 0.486184 18.64 0.537307 18.6816 0.600447C18.7232 0.663586 18.7475 0.736428 18.752 0.81137C18.7566 0.886312 18.7411 0.960608 18.7074 1.0265L10.748 16.5377C10.7152 16.6017 10.6662 16.6555 10.6059 16.6938C10.5457 16.7321 10.4761 16.7537 10.4043 16.7563C10.3324 16.7589 10.2606 16.7425 10.1959 16.7088C10.1313 16.675 10.0761 16.625 10.0357 16.5637L7.13937 12.1651Z" fill="white"/>
</svg>
