<svg width="20" height="14" viewBox="0 0 20 14" fill="none" xmlns="http://www.w3.org/2000/svg">
<path d="M19.5646 13.5955C19.4679 13.6318 19.3749 13.6501 19.2855 13.6501C19.0846 13.6501 18.9174 13.5807 18.7833 13.4423L14.2855 9.04527V10.8499C14.2855 11.7178 13.9712 12.4596 13.3424 13.0758C12.7137 13.6919 11.9568 14 11.0712 14H3.2142C2.32888 14 1.57176 13.6919 0.942949 13.0758C0.314368 12.4596 0 11.7178 0 10.8499V3.14994C0 2.2822 0.314368 1.54041 0.942988 0.924248C1.5718 0.308082 2.32891 0 3.21424 0H11.0713C11.9568 0 12.7137 0.308082 13.3425 0.924248C13.9713 1.54041 14.2856 2.28216 14.2856 3.14994V4.96568L18.7834 0.557782C18.9175 0.419371 19.0847 0.349993 19.2856 0.349993C19.375 0.349993 19.468 0.368228 19.5647 0.404546C19.855 0.528552 20 0.743582 20 1.04983V12.95C19.9999 13.2564 19.8549 13.4714 19.5646 13.5955Z" fill="#B984F4"/>
</svg>
